# xmcd
#
# Track frame offsets:
# 183
# 27268
# 46833
# 74598
# 93983
# 109388
# 124015
# 161670
# 192798
#
# Disc length: 2920 seconds
#
# Revision: 0
# Processed by: cddbd v1.4PL0 Copyright (c) Steve Scherf et al.
# Submitted via: Axialis_AX_CDPlayer 2.6
#
DISCID=770b6609
DTITLE=Carey and Lurrie Bell - Dynasty!
DYEAR=1900
DGENRE=
TTITLE0=Brought up the hard way
TTITLE1=(I shoulda did) what my mama told me
TTITLE2=The Galdy's shuffle
TTITLE3=I'll be your 44
TTITLE4=New harp in town
TTITLE5=I need you so bad
TTITLE6=I don't need no woman
TTITLE7=As the years go passing by
TTITLE8=Sail on
EXTD=
EXTT0=
EXTT1=
EXTT2=
EXTT3=
EXTT4=
EXTT5=
EXTT6=
EXTT7=
EXTT8=
PLAYORDER=
